<?xml version="1.0" standalone="no"?><!DOCTYPE svg PUBLIC "-//W3C//DTD SVG 1.1//EN" "http://www.w3.org/Graphics/SVG/1.1/DTD/svg11.dtd"><svg t="1574921288397" class="icon" viewBox="0 0 1024 1024" version="1.1" xmlns="http://www.w3.org/2000/svg" p-id="6907" xmlns:xlink="http://www.w3.org/1999/xlink" width="200" height="200"><defs><style type="text/css"></style></defs><path d="M917.789336 212.350752H93.653176c-41.623038 0-74.921469 33.298431-74.921469 74.921469s33.298431 74.921469 74.921469 74.921469h12.486912V874.157062c0 83.246077 66.596861 149.842938 149.842938 149.842938H476.585129V212.350752h70.759165v811.649248H767.946398c83.246077 0 149.842938-66.596861 149.842938-149.842938V362.19369h12.486911c41.623038 0 74.921469-33.298431 74.921469-74.921469s-45.785342-74.921469-87.40838-74.921469zM539.019687 170.727714S784.595613-4.089047 834.543259 0.073257c49.947646 4.162304 33.298431 170.654457 33.298431 170.654457h-328.822003zM476.585129 170.727714S231.009203-4.089047 181.061557 0.073257c-49.947646 4.162304-33.298431 170.654457-33.298431 170.654457H476.585129z" p-id="6908"></path></svg>