<?xml version="1.0" standalone="no"?><!DOCTYPE svg PUBLIC "-//W3C//DTD SVG 1.1//EN" "http://www.w3.org/Graphics/SVG/1.1/DTD/svg11.dtd"><svg t="1574921800932" class="icon" viewBox="0 0 1024 1024" version="1.1" xmlns="http://www.w3.org/2000/svg" p-id="13527" xmlns:xlink="http://www.w3.org/1999/xlink" width="200" height="200"><defs><style type="text/css"></style></defs><path d="M452.2 379.7c0 21.7 11.6 41.8 30.4 52.7 18.8 10.9 42 10.9 60.9 0 18.8-10.9 30.4-31 30.4-52.7 0-33.6-27.2-60.9-60.9-60.9-33.5 0.1-60.8 27.3-60.8 60.9z m0 0" p-id="13528"></path><path d="M513.1 486.5c-58.1 0-105.5-47.3-106.8-105.5-97.4-14.9-177.1-50-228.5-78.4v582.8c0 13.5 10.8 25.7 25.7 25.7H820c13.5 0 25.7-10.8 25.7-25.7V299.9c-48.7 28.4-125.8 64.9-225.8 82.5-1.3 58.2-48.7 104.1-106.8 104.1z m27 297.5H300.8v-35.2h239.3V784z m62.2-89.2H300.8V661h301.5v33.8z m123.1-89.3H300.8v-35.2h424.6v35.2zM820 112H203.4c-13.5 0-25.7 10.8-25.7 25.7V254c46 27 129.8 69 235.3 86.5 16.2-39.2 54.1-66.3 98.7-66.3s82.5 27 98.7 66.3c110.9-18.9 192-63.6 233.9-90.6V137.7c1.4-13.6-10.7-25.7-24.3-25.7z m0 0" p-id="13529"></path></svg>