<?xml version="1.0" standalone="no"?><!DOCTYPE svg PUBLIC "-//W3C//DTD SVG 1.1//EN" "http://www.w3.org/Graphics/SVG/1.1/DTD/svg11.dtd"><svg t="1574921131238" class="icon" viewBox="0 0 1024 1024" version="1.1" xmlns="http://www.w3.org/2000/svg" p-id="4409" xmlns:xlink="http://www.w3.org/1999/xlink" width="200" height="200"><defs><style type="text/css"></style></defs><path d="M512 222.563556c-94.378667 0-171.136 76.757333-171.136 171.107555 0 94.364444 76.757333 171.136 171.136 171.136 94.364444 0 171.136-76.771556 171.136-171.136 0-94.350222-76.771556-171.107556-171.136-171.107555z m0 313.799111c-78.677333 0-142.691556-64.014222-142.691556-142.691556 0-78.663111 64.014222-142.663111 142.691556-142.663111s142.691556 64 142.691556 142.663111c0 78.691556-64.014222 142.691556-142.691556 142.691556z" fill="" p-id="4410"></path><path d="M435.640889 376.078222c0-6.343111 0.768-9.528889 2.531555-16.142222a14.236444 14.236444 0 0 0-27.505777-7.281778c-2.161778 8.149333-3.470222 13.795556-3.470223 23.409778a14.222222 14.222222 0 1 0 28.444445 0.014222zM512.014222 470.058667a76.259556 76.259556 0 0 1-72.504889-52.309334 14.222222 14.222222 0 0 0-27.008 8.945778A104.632889 104.632889 0 0 0 512 498.503111a14.222222 14.222222 0 0 0 0.014222-28.444444z" fill="" p-id="4411"></path><path d="M836.309333 430.961778l-12.145777-18.901334c-5.930667-9.244444-5.930667-27.420444-0.014223-36.650666l12.145778-18.944a65.180444 65.180444 0 0 0 8.305778-51.868445 65.208889 65.208889 0 0 0-33.166222-40.789333l-19.939556-10.296889c-9.756444-5.034667-18.816-20.764444-18.304-31.758222l1.024-22.414222a64.540444 64.540444 0 0 0-17.692444-48.071111c-12.942222-13.568-30.620444-20.508444-50.147556-19.797334l-23.253333 1.080889c-11.036444 0-26.040889-8.917333-30.933334-18.346667l-10.339555-19.968c-11.278222-21.788444-33.208889-35.328-57.244445-35.328-12.444444 0-24.675556 3.655111-35.370666 10.510223l-18.944 12.145777c-8.590222 5.504-28.046222 5.518222-36.622222 0.014223l-18.915556-12.117334a65.649778 65.649778 0 0 0-35.427556-10.467555c-24.035556 0-45.980444 13.639111-57.258666 35.470222l-10.296889 20.124444c-4.864 9.429333-19.896889 18.730667-31.715556 18.730667h-0.028444l-22.456889-1.464889c-19.256889-0.711111-37.191111 5.831111-50.133333 19.384889a64.469333 64.469333 0 0 0-17.692445 48.042667l1.024 22.471111c0.512 10.965333-8.547556 26.680889-18.289778 31.715555l-20.010666 10.325334a65.166222 65.166222 0 0 0-33.137778 40.775111 65.223111 65.223111 0 0 0 8.348444 51.911111l12.131556 18.872889c5.930667 9.258667 5.930667 27.434667 0.028444 36.650667l-12.174222 18.958222a65.194667 65.194667 0 0 0-8.305778 51.896889 65.080889 65.080889 0 0 0 33.137778 40.718222l19.968 10.353778c9.756444 5.020444 18.830222 20.750222 18.318222 31.729777l-1.024 22.414223a64.526222 64.526222 0 0 0 17.265778 47.544889l-43.093333 237.425777a28.444444 28.444444 0 0 0 35.541333 32.483556l76.970667-21.205333 64.611555 46.947555c4.949333 3.584 10.808889 5.418667 16.725334 5.418667a28.458667 28.458667 0 0 0 27.975111-23.409778l32.284444-177.749333 37.461334 206.236444a28.472889 28.472889 0 0 0 27.989333 23.367111c5.916444 0 11.776-2.332444 16.725333-5.916444l103.864889-75.918222 123.747556 33.109333c2.474667 0.696889 5.020444-0.910222 7.537778-0.910222h0.298666c15.701333 0 28.444444-10.666667 28.444445-26.382223 0-3.128889-0.526222-4.110222-1.464889-6.940444L772.408889 605.923556c1.294222-5.745778 2.104889-11.662222 1.820444-17.792l-1.009777-22.471112c-0.512-10.965333 8.547556-26.666667 18.318222-31.701333l19.939555-10.353778a65.166222 65.166222 0 0 0 33.166223-40.718222 65.308444 65.308444 0 0 0-8.334223-51.925333zM397.880889 858.638222l-39.082667-28.359111a28.302222 28.302222 0 0 0-24.305778-4.423111l-46.520888 12.828444 33.208888-182.897777 19.655112-0.910223c8.277333 0 18.801778 5.034667 25.6 11.505778 2.261333 2.147556 4.124444 4.465778 5.333333 6.812445l10.325333 19.996444 0.071111 0.113778a66.844444 66.844444 0 0 0 8.348445 12.245333 64.568889 64.568889 0 0 0 19.996444 15.886222c3.655111 1.863111 7.438222 3.498667 11.406222 4.622223l-24.035555 132.579555z m268.088889-32.839111a28.430222 28.430222 0 0 0-24.277334 4.423111l-78.307555 56.860445L530.488889 705.976889l18.773333 12.316444c10.723556 6.869333 22.954667 10.794667 35.399111 10.794667 24.021333 0 45.966222-12.942222 57.230223-34.744889l10.353777-18.830222c1.820444-3.527111 5.063111-6.656 9.031111-9.187556a44.515556 44.515556 0 0 1 22.613334-6.784h0.042666l2.56-0.142222 23.096889-1.052444c4.750222 0 9.443556-2.816 13.923556-3.783111l35.797333 196.949333-93.340444-25.713778z m110.336-383.047111l12.145778 18.901333a8.049778 8.049778 0 0 1 1.28 6.513778 8.035556 8.035556 0 0 1-4.337778 5.006222l-19.968 10.439111c-29.496889 15.246222-50.56 51.982222-49.009778 85.105778l1.009778 22.912c0.113778 2.503111-0.583111 5.504-2.005334 6.997334-0.725333 0.768-1.92 2.588444-3.911111 3.470222a6.513778 6.513778 0 0 1-2.389333 0.497778h-0.028444l-22.471112-2.801778c-33.066667-1.664-69.703111 17.834667-84.920888 47.274666l-10.339556 19.968c-2.076444 3.968-5.105778 4.551111-6.727111 4.551112a8.718222 8.718222 0 0 1-4.693333-1.493334l-18.944-12.145778a73.585778 73.585778 0 0 0-9.386667-4.992c-1.237333-0.568889-2.503111-1.066667-3.783111-1.578666a86.229333 86.229333 0 0 0-6.115556-2.147556c-1.735111-0.540444-3.427556-1.109333-5.205333-1.550222-0.654222-0.170667-1.351111-0.256-2.005333-0.398222a97.792 97.792 0 0 0-14.293334-2.161778 96.241778 96.241778 0 0 0-4.039111-0.270222c-1.408-0.056889-2.759111-0.284444-4.181333-0.284445-0.938667 0-1.848889 0.156444-2.787556 0.184889-1.848889 0.042667-3.669333 0.227556-5.518222 0.355556a105.472 105.472 0 0 0-9.315556 1.180444c-1.592889 0.284444-3.228444 0.483556-4.792888 0.853334-0.298667 0.071111-0.554667 0.213333-0.853334 0.284444-9.415111 2.247111-18.232889 5.703111-25.756444 10.510222l-18.659556 12.003556c-0.369778 0.184889-0.782222 0.227556-1.152 0.412444-4.152889 2.190222-8.376889 0.867556-10.524444-3.299555l-10.339556-20.024889c-15.260444-29.44-51.569778-50.389333-84.935111-48.995556l-22.798222 1.080889c-0.142222 0-0.369778-0.056889-0.540445-0.056889-0.668444-0.028444-1.152-0.213333-1.692444-0.341333-0.540444-0.156444-1.066667-0.298667-1.749333-0.625778-0.184889-0.099556-0.398222-0.113778-0.583111-0.213333-0.512-0.312889-1.080889-0.654222-1.408-0.981334a8.106667 8.106667 0 0 1-2.019556-6.186666l1.024-22.414222c1.550222-33.166222-19.527111-69.674667-49.009778-84.920889l-19.996444-10.353778a7.907556 7.907556 0 0 1-4.323556-4.935111 7.964444 7.964444 0 0 1 1.265778-6.442667l12.174222-18.958222c17.891556-27.946667 17.891556-70.087111-0.028444-98.062222l-12.131556-18.872889a7.964444 7.964444 0 0 1-1.294222-6.471111 7.921778 7.921778 0 0 1 4.323556-4.935111l19.982222-10.254223c29.496889-15.246222 50.56-51.655111 49.024-84.792889l-1.024-22.229333a6.926222 6.926222 0 0 1 2.019555-5.632c0.967111-1.024 2.744889-1.28 6.272-1.28h0.056889l22.442667 0.099556c33.28 1.720889 69.688889-20.522667 84.963555-50.005334l10.296889-19.939555c2.062222-3.996444 5.105778-4.579556 6.727111-4.579556a8.675556 8.675556 0 0 1 4.707556 1.507556l18.929778 12.145778c26.965333 17.28 71.068444 17.28 98.019555 0l18.972445-12.145778a8.675556 8.675556 0 0 1 4.664889-1.493334c1.635556 0 4.664889 0.583111 6.741333 4.579556l10.325333 19.953778c15.232 29.454222 51.527111 50.588444 84.949334 49.024l22.968889-1.066667c3.029333 0 4.807111 1.223111 5.788444 2.247111 1.436444 1.507556 2.133333 3.626667 2.019556 6.158222l-1.009778 22.414223c-1.564444 33.166222 19.512889 69.688889 49.038222 84.949333l19.911111 10.296889a8.049778 8.049778 0 0 1 4.366222 4.977778 7.921778 7.921778 0 0 1-1.28 6.456889l-12.145777 18.944c-17.905778 27.946667-17.905778 70.115556 0.014222 98.076444z" fill="" p-id="4412"></path></svg>