<?xml version="1.0" standalone="no"?><!DOCTYPE svg PUBLIC "-//W3C//DTD SVG 1.1//EN" "http://www.w3.org/Graphics/SVG/1.1/DTD/svg11.dtd"><svg t="1574922313331" class="icon" viewBox="0 0 1024 1024" version="1.1" xmlns="http://www.w3.org/2000/svg" p-id="19285" xmlns:xlink="http://www.w3.org/1999/xlink" width="200" height="200"><defs><style type="text/css"></style></defs><path d="M907.343 116.294H790.799V34.888C790.799 15.627 775.172 0 755.91 0c-19.261 0-34.888 15.627-34.888 34.888v81.406H302.364V34.888C302.364 15.627 286.737 0 267.476 0s-34.888 15.627-34.888 34.888v81.406H116.544C52.31 116.294 0.25 168.376 0.25 232.588v180.71c-0.068 0.817-0.25 1.613-0.25 2.453 0 0.863 0.182 1.658 0.25 2.499v488.843c0 64.234 52.06 116.294 116.294 116.294h790.799c64.234 0 116.294-52.06 116.294-116.294V232.588c0-64.212-52.06-116.294-116.294-116.294z m46.517 767.54c0 38.545-31.231 69.776-69.776 69.776H139.803c-38.545 0-69.776-31.231-69.776-69.776V450.639H953.86v433.195z m0-502.971H70.026V255.847c0-38.522 31.231-69.776 69.776-69.776h92.785v81.406c0 19.284 15.627 34.888 34.888 34.888s34.888-15.604 34.888-34.888V186.07h418.658v81.406c0 19.284 15.627 34.888 34.888 34.888 19.262 0 34.889-15.604 34.889-34.888V186.07h93.285c38.545 0 69.776 31.254 69.776 69.776v125.017z" p-id="19286"></path><path d="M454.523 881.857h116.294c19.261 0 34.888-15.604 34.888-34.888s-15.627-34.889-34.888-34.889H454.523c-19.261 0-34.888 15.604-34.888 34.889s15.627 34.888 34.888 34.888zM175.417 881.857h116.294c19.261 0 34.888-15.604 34.888-34.888s-15.627-34.889-34.888-34.889H175.417c-19.261 0-34.888 15.604-34.888 34.889s15.627 34.888 34.888 34.888zM733.629 881.857h116.294c19.261 0 34.888-15.604 34.888-34.888s-15.627-34.889-34.888-34.889H733.629c-19.262 0-34.889 15.604-34.889 34.889s15.627 34.888 34.889 34.888zM454.523 742.305h116.294c19.261 0 34.888-15.604 34.888-34.888s-15.627-34.888-34.888-34.888H454.523c-19.261 0-34.888 15.604-34.888 34.888s15.627 34.888 34.888 34.888zM175.417 742.305h116.294c19.261 0 34.888-15.604 34.888-34.888s-15.627-34.888-34.888-34.888H175.417c-19.261 0-34.888 15.604-34.888 34.888s15.627 34.888 34.888 34.888zM733.629 742.305h116.294c19.261 0 34.888-15.604 34.888-34.888s-15.627-34.888-34.888-34.888H733.629c-19.262 0-34.889 15.604-34.889 34.888s15.627 34.888 34.889 34.888zM454.523 602.752h116.294c19.261 0 34.888-15.604 34.888-34.888s-15.627-34.888-34.888-34.888H454.523c-19.261 0-34.888 15.604-34.888 34.888s15.627 34.888 34.888 34.888zM175.417 602.752h116.294c19.261 0 34.888-15.604 34.888-34.888s-15.627-34.888-34.888-34.888H175.417c-19.261 0-34.888 15.604-34.888 34.888s15.627 34.888 34.888 34.888zM733.629 602.752h116.294c19.261 0 34.888-15.604 34.888-34.888s-15.627-34.888-34.888-34.888H733.629c-19.262 0-34.889 15.604-34.889 34.888s15.627 34.888 34.889 34.888z" p-id="19287"></path></svg>