<?xml version="1.0" standalone="no"?><!DOCTYPE svg PUBLIC "-//W3C//DTD SVG 1.1//EN" "http://www.w3.org/Graphics/SVG/1.1/DTD/svg11.dtd"><svg t="1577326353996" class="icon" viewBox="0 0 1024 1024" version="1.1" xmlns="http://www.w3.org/2000/svg" p-id="3269" width="64" height="64" xmlns:xlink="http://www.w3.org/1999/xlink"><defs><style type="text/css"></style></defs><path d="M750.074667 531.733333l0 388.714667L136.485333 920.448 136.485333 102.357333 750.074667 102.357333l0 99.584 102.4-98.496L852.474667 89.856C852.474667 40.234667 812.218667 0 762.597333 0L123.984 0C74.32 0 34.106667 40.234667 34.106667 89.856l0 843.093333c0 49.621333 40.213333 89.856 89.856 89.856l638.634667 0c49.621333 0 89.877333-40.234667 89.877333-89.856L852.474667 428.992 750.074667 531.733333z" p-id="3270" fill="#BFCBD9"></path><path d="M985.104 183.189333 933.114667 131.221333c-11.498667-11.477333-30.101333-11.477333-41.578667 0l-41.621333 41.6 93.632 93.589333 41.557333-41.6C996.581333 213.312 996.581333 194.666667 985.104 183.189333z" p-id="3271" fill="#BFCBD9"></path><path d="M349.392 674.261333 442.426667 767.296 921.829333 288.085333 828.24 194.496Z" p-id="3272" fill="#BFCBD9"></path><path d="M330.874667 691.84 256.976 836.032 330.874667 691.84Z" p-id="3273" fill="#BFCBD9"></path><path d="M277.818667 856.810667 425.957333 786.901333 330.874667 691.84 256.976 836.032Z" p-id="3274" fill="#BFCBD9"></path></svg>