<?xml version="1.0" standalone="no"?><!DOCTYPE svg PUBLIC "-//W3C//DTD SVG 1.1//EN" "http://www.w3.org/Graphics/SVG/1.1/DTD/svg11.dtd"><svg t="1574921575600" class="icon" viewBox="0 0 1024 1024" version="1.1" xmlns="http://www.w3.org/2000/svg" p-id="10137" xmlns:xlink="http://www.w3.org/1999/xlink" width="200" height="200"><defs><style type="text/css"></style></defs><path d="M535.845 390.344L512 274.266l-22.045 115.807c-24.025 4.319-47.06 15.746-65.687 34.283-48.41 48.501-48.41 126.965 0 175.375 48.411 48.41 126.965 48.41 175.375 0 48.501-48.501 48.501-126.965 0-175.375-18.086-18.086-40.402-29.513-63.797-34.013m256.178 401.681L615.659 615.659c-18.896 18.896-41.662 31.493-65.687 37.972l64.607 241.062C581.556 903.511 547.092 908.01 512 908.01s-69.466-4.589-102.489-13.317l64.607-241.062c-24.115-6.389-46.791-19.075-65.687-37.972L232.066 792.024c-50.93-50.93-85.123-112.477-102.399-177.534l240.882-64.517a146.534 146.534 0 0 1 0-75.855l-240.882-64.517c17.276-65.057 51.38-126.605 102.31-177.534l176.365 176.365c18.896-18.896 41.572-31.493 65.687-37.972l-64.517-241.062c33.023-8.728 67.396-13.317 102.489-13.317s69.466 4.589 102.579 13.317L549.973 370.46c24.025 6.389 46.791 19.075 65.687 37.972l176.365-176.365c49.941 49.941 84.943 110.948 102.669 177.444l-241.151 64.607a146.534 146.534 0 0 1 0 75.855l241.062 64.607c-17.726 66.496-52.64 127.505-102.579 177.444m38.15-598.11C745.143 108.971 632.215 62.18 512 62.18c-120.127 0-233.143 46.791-318.086 131.734C108.881 278.857 62.09 391.875 62.09 512c0 120.216 46.791 233.143 131.824 318.176C278.857 915.209 391.875 961.91 512 961.91c120.216 0 233.143-46.791 318.176-131.734C915.209 745.233 961.91 632.215 961.91 512c0-120.127-46.791-233.143-131.734-318.086z" p-id="10138"></path></svg>