<?xml version="1.0" standalone="no"?><!DOCTYPE svg PUBLIC "-//W3C//DTD SVG 1.1//EN" "http://www.w3.org/Graphics/SVG/1.1/DTD/svg11.dtd"><svg t="1574921094080" class="icon" viewBox="0 0 1024 1024" version="1.1" xmlns="http://www.w3.org/2000/svg" p-id="3686" xmlns:xlink="http://www.w3.org/1999/xlink" width="200" height="200"><defs><style type="text/css"></style></defs><path d="M275.242667 250.666667h566.314666a42.666667 42.666667 0 0 1 41.429334 52.864l-64.341334 261.333333a42.666667 42.666667 0 0 1-41.386666 32.469333H332.970667l7.125333 42.666667h433.194667a42.666667 42.666667 0 0 1 0 85.333333h-469.333334a42.666667 42.666667 0 0 1-42.069333-35.669333L182.528 213.333333H128a42.666667 42.666667 0 1 1 0-85.333333h90.666667a42.666667 42.666667 0 0 1 42.069333 35.669333l14.506667 86.997334zM362.666667 896a64 64 0 1 1 0-128 64 64 0 0 1 0 128z m341.333333 0a64 64 0 1 1 0-128 64 64 0 0 1 0 128z" p-id="3687"></path></svg>