<?xml version="1.0" standalone="no"?><!DOCTYPE svg PUBLIC "-//W3C//DTD SVG 1.1//EN" "http://www.w3.org/Graphics/SVG/1.1/DTD/svg11.dtd"><svg t="1574921211798" class="icon" viewBox="0 0 1024 1024" version="1.1" xmlns="http://www.w3.org/2000/svg" p-id="5635" xmlns:xlink="http://www.w3.org/1999/xlink" width="200" height="200"><defs><style type="text/css"></style></defs><path d="M99.47648 134.5792V972.53376c0 33.01376 51.2 33.01376 51.2 0V211.51744 134.57408c0-33.01376-51.2-33.01376-51.2 0.00512z" p-id="5636"></path><path d="M150.03648 640.36352c58.97216-38.65088 122.88512-66.52416 194.10944-69.49888 70.26176-2.93888 138.6752 20.9664 200.87808 51.49696 32.56832 15.97952 62.976 33.90464 97.78688 44.89728 32.65536 10.30656 67.8912 13.65504 101.9904 13.05088 54.0928-0.96256 106.80832-15.81056 156.21632-36.95616 18.04288-7.72608 57.87648-21.0432 57.87648-45.68064v-45.55776-226.77504-211.40992c0-18.76992-21.97504-32.75264-38.51776-22.10304-30.01856 19.31776-64.45568 32.11264-98.66752 41.55904-82.78016 22.85568-159.12448 9.41568-233.87648-30.56128C514.92864 63.83616 435.13344 35.84 351.75424 35.4816c-82.14016-0.35328-159.90272 32.30208-227.5584 76.6464-27.48928 18.01728-1.86368 62.37184 25.84064 44.2112 68.31616-44.78464 142.01344-73.1392 224.60928-69.03296 90.45504 4.49536 162.82112 53.41696 243.54304 87.31136 102.49728 43.04384 235.68896 20.8384 328.01792-38.58432l-38.51776-22.10304v484.02944l12.68224-22.10304c-30.01856 19.31776-64.45568 32.11264-98.66752 41.55904-82.78016 22.85568-159.12448 9.41568-233.87648-30.56128-72.89344-38.97856-152.68864-66.9696-236.07296-67.328-82.13504-0.35328-159.8976 32.29696-227.55328 76.63616-27.48928 18.00704-1.8688 62.35648 25.83552 44.20096z" p-id="5637"></path></svg>