<?xml version="1.0" standalone="no"?><!DOCTYPE svg PUBLIC "-//W3C//DTD SVG 1.1//EN" "http://www.w3.org/Graphics/SVG/1.1/DTD/svg11.dtd"><svg t="1574921528264" class="icon" viewBox="0 0 1024 1024" version="1.1" xmlns="http://www.w3.org/2000/svg" p-id="8920" xmlns:xlink="http://www.w3.org/1999/xlink" width="200" height="200"><defs><style type="text/css"></style></defs><path d="M97.045755 957.48305c-7.337105 0-14.484899-2.895957-19.786649-8.198729l-6.080485-6.068206c-6.91448-6.913457-9.715269-16.916275-7.405667-26.426883 8.485255-34.845623 52.978609-210.881918 96.309486-254.199493L721.514269 101.165074c23.926946-23.934109 56.093553-37.107129 90.584088-37.107129 36.484959 0 71.084988 14.498202 97.4034 40.823777l6.080485 6.080485c25.048489 25.034163 40.597627 59.674101 42.674938 95.045703 2.213411 37.578874-10.261715 71.951729-35.105542 96.794533L361.705484 864.234273c-43.535539 43.536562-223.090984 84.776825-258.646781 92.592838C101.063255 957.265086 99.041202 957.48305 97.045755 957.48305zM812.098357 120.028701c-19.541055 0-37.646412 7.351432-51.010791 20.708648L199.654714 702.163037c-20.360723 20.360723-51.393507 114.435309-72.15025 191.477986 78.476329-19.293415 174.36319-48.727795 194.627722-68.980048l561.446156-561.431829c13.377682-13.384845 20.060895-32.543184 18.803251-53.9354-1.285273-21.871123-10.891048-43.283806-26.372647-58.752102l-6.080485-6.087649C854.172615 128.699174 833.633836 120.028701 812.098357 120.028701z" p-id="8921"></path><path d="M859.952248 317.259714c-3.580548 0-7.161097-1.366114-9.893324-4.099365l-150.477176-150.477176c-5.466502-5.465478-5.466502-14.32117 0-19.786649 5.465478-5.465478 14.32117-5.465478 19.786649 0l150.477176 150.477176c5.466502 5.465478 5.466502 14.32117 0 19.786649C867.112322 315.8936 863.531773 317.259714 859.952248 317.259714z" p-id="8922"></path><path d="M350.609775 826.629817c-3.580548 0-7.161097-1.367137-9.893324-4.100388L190.226994 672.018483c-5.466502-5.466502-5.466502-14.320147 0-19.786649 5.465478-5.466502 14.320147-5.466502 19.786649 0l150.490479 150.510946c5.465478 5.466502 5.465478 14.32117 0 19.786649C357.770871 825.26268 354.190323 826.629817 350.609775 826.629817z" p-id="8923"></path><path d="M240.53989 898.479215c-3.580548 0-7.160073-1.367137-9.893324-4.099365l-96.391351-96.420003c-5.465478-5.465478-5.465478-14.320147 0-19.786649 5.466502-5.465478 14.32117-5.465478 19.786649 0l96.391351 96.420003c5.466502 5.465478 5.466502 14.320147 0 19.786649C247.700987 897.112078 244.120438 898.479215 240.53989 898.479215z" p-id="8924"></path><path d="M258.003634 734.002187c-3.580548 0-7.160073-1.367137-9.893324-4.099365-5.465478-5.466502-5.465478-14.32117 0-19.786649l416.749636-416.742473c5.465478-5.465478 14.32117-5.465478 19.786649 0s5.465478 14.32117 0 19.786649L267.896958 729.903845C265.163707 732.635049 261.584182 734.002187 258.003634 734.002187z" p-id="8925"></path><path d="M715.255729 276.743952c-3.580548 0-7.160073-1.366114-9.893324-4.099365-5.465478-5.466502-5.465478-14.32117 0-19.786649l52.089355-52.090379c5.466502-5.465478 14.32117-5.465478 19.786649 0 5.466502 5.466502 5.466502 14.32117 0 19.786649l-52.089355 52.090379C722.415802 275.376815 718.836277 276.743952 715.255729 276.743952z" p-id="8926"></path><path d="M304.300053 780.304745c-3.580548 0-7.161097-1.366114-9.893324-4.099365-5.465478-5.466502-5.465478-14.320147 0-19.786649l509.34145-509.342474c5.466502-5.465478 14.320147-5.465478 19.786649 0 5.466502 5.466502 5.466502 14.32117 0 19.786649L314.193377 776.206404C311.460126 778.938632 307.880601 780.304745 304.300053 780.304745z" p-id="8927"></path></svg>