<?xml version="1.0" standalone="no"?><!DOCTYPE svg PUBLIC "-//W3C//DTD SVG 1.1//EN" "http://www.w3.org/Graphics/SVG/1.1/DTD/svg11.dtd"><svg t="1574921549098" class="icon" viewBox="0 0 1028 1024" version="1.1" xmlns="http://www.w3.org/2000/svg" p-id="9449" xmlns:xlink="http://www.w3.org/1999/xlink" width="200.78125" height="200"><defs><style type="text/css"></style></defs><path d="M765.256602 864.876154h-63.767883v63.645449H765.256602v-63.645449z m-127.535767 0h-63.767883v63.645449h63.767883v-63.645449z m-159.419709-445.558957a31.777832 31.777832 0 0 0 22.542202-9.325415l159.419709-159.123826a31.847212 31.847212 0 1 0-45.084404-44.994619l-159.419709 159.123826a31.832928 31.832928 0 0 0 22.542202 54.320034z m541.81071 253.541105a31.553369 31.553369 0 0 0-2.181371-10.835438c-0.295883-0.693795-0.761133-1.285561-1.095788-1.95895a30.902427 30.902427 0 0 0-2.88945-5.223865l-191.303651-254.602203a31.281973 31.281973 0 0 0-3.968913-3.305727l96.816992-98.069903a31.832928 31.832928 0 0 0 0-44.729345L679.070992 14.712526a32.853214 32.853214 0 0 0-45.398652 0L265.612278 387.504675h-42.382686a31.873739 31.873739 0 0 0-25.507154 12.733171L6.418787 654.840049a31.530923 31.530923 0 0 0-2.88945 5.223865c-0.334654 0.673389-0.799904 1.265155-1.097828 1.95895a31.600302 31.600302 0 0 0-2.181372 10.835438c-0.016325 0.367303-0.216301 0.693795-0.2163 1.061098v127.290898a31.845171 31.845171 0 0 0 31.883941 31.832928H127.577766v159.123826a31.845171 31.845171 0 0 0 31.883942 31.832928h701.44672a31.845171 31.845171 0 0 0 31.883942-31.832928v-159.123826h95.651825A31.845171 31.845171 0 0 0 1020.328137 801.210298v-127.290898c0-0.367303-0.204057-0.673389-0.216301-1.061098zM656.373706 82.398309l191.644427 194.099234-235.204523 238.298031h-178.788821l-102.253077-103.62026zM239.172583 451.150125h42.501039l62.849626 63.645449H255.113533a31.832928 31.832928 0 1 0 0 63.645449h510.143069a31.832928 31.832928 0 1 0 0-63.645449h-62.951654l62.859829-63.665855c0.028568 0 0.059177 0.020406 0.091825 0.020406h15.940951l143.478759 190.956753H95.693824zM829.024486 960.334125H191.34565v-127.290899h637.678836v127.290899z m127.535767-190.936348H63.809883v-63.64545h892.75037v63.64545z" p-id="9450"></path></svg>